#N canvas 1025 56 735 636 8;
#X text 133 294 by Charles K. Neimog;
#X text 89 2 Welcome to the pd-score documentation!;
#X text 1 22 This library requires py4pd object \, search py4pd on Deken to download it \, first you need to install Python \, py4pd and then install neoscore to this work., f 71;
#X obj 4 63 py4pd -lib pd-score;
#X obj 2 151 py.chord;
#X msg 2 127 C+5;
#X text 104 61 <= If this not work \, something is missing.;
#X msg 31 127 C4 E4 G+4;
#X msg 92 127 6040;
#X connect 5 0 4 0;
#X connect 7 0 4 0;
#X connect 8 0 4 0;
