#N canvas 644 23 632 1016 8;
#X text 133 294 by Charles K. Neimog;
#X text 89 2 Welcome to the score documentation!;
#X text 1 22 This library requires py4pd object \, search py4pd on Deken to download it \, first you need to install Python \, py4pd and then install neoscore to this work., f 71;
#X obj 4 63 py4pd -lib score;
#X obj 2 159 py.chord;
#X msg 2 127 C+5;
#X text 122 64 <= If this not work \, something is missing.;
#X msg 31 127 C4 E4 G+4;
#X msg 92 127 6040;
#X obj 159 168 py4pd;
#X text 193 169 This first \, it will look the pd GUI. Wait!!!;
#X msg 56 100 60.5;
#X msg 11 89 reload;
#X msg 159 128 pip install git+https://github.com/charlesneimog/py4pd-score;
#X connect 5 0 4 0;
#X connect 7 0 4 0;
#X connect 8 0 4 0;
#X connect 11 0 4 0;
#X connect 12 0 4 0;
#X connect 13 0 9 0;
