#N canvas 1282 23 632 1016 8;
#X msg 7 35 C5;
#X msg 141 35 C5 C+4;
#X msg 140 200 6000 6350 7650 5950;
#X msg 8 200 8400;
#X text 280 55 With this object \, you can create chord visualization like the chord objet in OpenMusic. For now \, It supports just 12 tones and quarter tones., f 42;
#X text 281 135 You can use note names or midicents to create the chords, f 42;
#X obj 6 5 py4pd -lib score;
#X obj 7 56 py.chord 248 248;
#X obj 141 56 py.chord 248 248;
#X obj 140 221 py.chord 248 248;
#X obj 8 221 py.chord 248 248;
#X connect 0 0 7 0;
#X connect 1 0 8 0;
#X connect 2 0 9 0;
#X connect 3 0 10 0;
